<?xml version="1.0" encoding="utf-8"?>
<!-- Generator: Adobe Illustrator 18.1.1, SVG Export Plug-In . SVG Version: 6.00 Build 0)  -->
<svg version="1.1" xmlns="http://www.w3.org/2000/svg" xmlns:xlink="http://www.w3.org/1999/xlink" x="0px" y="0px"
	 viewBox="0 0 32 32" style="enable-background:new 0 0 32 32;" xml:space="preserve">
<g id="Guides">
</g>
<g id="_x32_0">
</g>
<g id="_x31_9">
</g>
<g id="_x31_8">
</g>
<g id="_x31_7">
</g>
<g id="_x31_6">
</g>
<g id="_x31_5">
</g>
<g id="_x31_4">
</g>
<g id="_x31_3">
</g>
<g id="_x31_2">
</g>
<g id="_x31_1">
	<path d="M16,26C9.3833,26,4,20.6172,4,14S9.3833,2,16,2s12,5.3828,12,12S22.6167,26,16,26z M16,4C10.4858,4,6,8.4863,6,14
		s4.4858,10,10,10s10-4.4863,10-10S21.5142,4,16,4z"/>
	<path d="M16,22c-1.1968,0-2.3481-0.2588-3.4229-0.7695c-0.499-0.2373-0.7109-0.834-0.4741-1.333
		c0.2378-0.498,0.834-0.708,1.3325-0.4736C14.2397,19.8066,15.1025,20,16,20c3.3086,0,6-2.6914,6-6c0-0.5527,0.4478-1,1-1
		s1,0.4473,1,1C24,18.4111,20.4111,22,16,22z"/>
	<path d="M16,14c-0.8271,0-1.5-0.6729-1.5-1.5S15.1729,11,16,11s1.5,0.6729,1.5,1.5S16.8271,14,16,14z M16,12
		c-0.2759,0-0.5,0.2246-0.5,0.5S15.7241,13,16,13s0.5-0.2246,0.5-0.5S16.2759,12,16,12z"/>
	<path d="M16,18c-0.2559,0-0.5117-0.0977-0.707-0.293l-5-5c-0.2681-0.2676-0.3613-0.6641-0.2417-1.0234l1-3
		C11.1875,8.2754,11.5693,8,12,8h8c0.4307,0,0.8125,0.2754,0.9487,0.6836l1,3c0.1196,0.3594,0.0264,0.7559-0.2417,1.0234l-5,5
		C16.5117,17.9023,16.2559,18,16,18z M12.144,11.7295L16,15.5859l3.856-3.8564L19.2793,10h-6.5586L12.144,11.7295z"/>
	<path d="M28,30c-0.1064,0-0.2129-0.0166-0.3164-0.0518l-3-1c-0.2109-0.0703-0.3921-0.209-0.5156-0.3936l-8-12
		c-0.3062-0.46-0.1821-1.0801,0.2773-1.3867c0.459-0.3057,1.0796-0.1826,1.3867,0.2773l7.8096,11.7148L27,27.6123v-1.3096
		l-7.832-11.748c-0.3062-0.46-0.1821-1.0801,0.2773-1.3867c0.459-0.3066,1.0801-0.1826,1.3867,0.2773l8,12
		C28.9414,25.6094,29,25.8027,29,26v3c0,0.3213-0.1543,0.623-0.4155,0.8115C28.4121,29.9355,28.207,30,28,30z"/>
	<path d="M4,30c-0.207,0-0.4121-0.0645-0.5845-0.1885C3.1543,29.623,3,29.3213,3,29v-3c0-0.1973,0.0586-0.3906,0.168-0.5547l8-12
		c0.3062-0.46,0.9263-0.584,1.3867-0.2773c0.4595,0.3066,0.5835,0.9268,0.2773,1.3867L5,26.3027v1.3096l1.3584-0.4521
		l7.8096-11.7148c0.3057-0.46,0.9263-0.583,1.3867-0.2773c0.4595,0.3066,0.5835,0.9268,0.2773,1.3867l-8,12
		c-0.1235,0.1846-0.3047,0.3232-0.5156,0.3936l-3,1C4.2129,29.9834,4.1064,30,4,30z"/>
	<path d="M17,10c-0.5522,0-1-0.4473-1-1c0,0.5527-0.4478,1-1,1s-1-0.4473-1-1V7c0-0.5527,0.4478-1,1-1h2c0.5522,0,1,0.4473,1,1v2
		C18,9.5527,17.5522,10,17,10z"/>
</g>
<g id="_x31_0">
</g>
<g id="_x30_9">
</g>
<g id="_x30_8">
</g>
<g id="_x30_7">
</g>
<g id="_x30_6">
</g>
<g id="_x30_5">
</g>
<g id="_x30_4">
</g>
<g id="_x30_3">
</g>
<g id="_x30_2">
</g>
<g id="_x30_1">
</g>
</svg>
