<svg xmlns="http://www.w3.org/2000/svg" xml:space="preserve" width="1.70666in" height="1.70666in" version="1.1" style="shape-rendering:geometricPrecision; text-rendering:geometricPrecision; image-rendering:optimizeQuality; fill-rule:evenodd; clip-rule:evenodd" viewBox="0 0 1707 1707" xmlns:xlink="http://www.w3.org/1999/xlink">
 <defs>
  <style type="text/css">
   
    .fil0 {fill:#000002}
   
  </style>
 </defs>
 <g id="Layer_x0020_1">
  <metadata id="CorelCorpID_0Corel-Layer"></metadata>
  <path class="fil0" d="M991 172l-275 0c-7,0 -14,-3 -18,-9l-86 -118 -141 0 0 0c-65,0 -119,54 -119,119l0 1231 1002 0 0 -1231c0,-65 -53,-119 -118,-119l-141 0 -86 118c-4,6 -11,9 -18,9zm-367 -172l459 0 153 0c90,0 164,74 164,164l0 1253 0 0 0 1 0 124c0,91 -74,165 -164,165l-765 0c-90,0 -164,-74 -164,-165l0 -1378c0,-90 74,-164 164,-164l153 0zm-272 1440l0 103c0,65 54,118 119,118l765 0c65,0 118,-53 118,-118l0 -103 -1002 0zm608 133l-217 0c-13,0 -23,-10 -23,-22 0,-13 10,-23 23,-23l217 0c13,0 23,10 23,23 0,12 -10,22 -23,22zm-232 -1446l251 0 60 -82 -371 0 60 82z" id="id_101" style="fill: rgb(255, 255, 255);"></path>
 </g>
</svg>